<svg preserveAspectRatio="none" overflow="visible" style="display: block;" width="10.5" height="10.5032" viewBox="0 0 10.5 10.5032" fill="none" xmlns="http://www.w3.org/2000/svg">
<g id="Image">
<path id="Vector" d="M9.65098 2.43382C9.90732 2.17747 9.90732 1.76117 9.65098 1.50482L8.33848 0.192318C8.1498 0.00364584 7.86885 -0.0517253 7.62275 0.0508138C7.37666 0.153353 7.21875 0.393294 7.21875 0.657845V1.31409H3.9375C1.76367 1.31409 0 3.07777 0 5.2516C0 5.61458 0.293262 5.90785 0.65625 5.90785C1.01924 5.90785 1.3125 5.61458 1.3125 5.2516C1.3125 3.80169 2.4876 2.62659 3.9375 2.62659H7.21875V3.28284C7.21875 3.5474 7.37871 3.78734 7.6248 3.88988C7.8709 3.99242 8.15186 3.93499 8.34053 3.74837L9.65303 2.43587L9.65098 2.43382ZM0.849023 8.06937C0.592676 8.32572 0.592676 8.74203 0.849023 8.99837L2.16152 10.3109C2.3502 10.4995 2.63115 10.5549 2.87725 10.4524C3.12334 10.3498 3.28125 10.1099 3.28125 9.84535V9.1891H6.5625C8.73633 9.1891 10.5 7.42542 10.5 5.2516C10.5 4.88861 10.2067 4.59534 9.84375 4.59534C9.48076 4.59534 9.1875 4.88861 9.1875 5.2516C9.1875 6.7015 8.0124 7.8766 6.5625 7.8766H3.28125V7.22035C3.28125 6.95579 3.12129 6.71585 2.8752 6.61331C2.6291 6.51077 2.34814 6.5682 2.15947 6.75482L0.846973 8.06732L0.849023 8.06937Z" fill="#6B3A1F"/>
</g>
</svg>
