<svg preserveAspectRatio="none" overflow="visible" style="display: block;" width="16.875" height="13.502" viewBox="0 0 16.875 13.502" fill="none" xmlns="http://www.w3.org/2000/svg">
<g id="Image">
<path id="Vector" d="M12.6562 5.48438C12.6562 6.69463 12.2634 7.8126 11.6016 8.71963L14.9396 12.0604C15.2692 12.3899 15.2692 12.9252 14.9396 13.2548C14.6101 13.5844 14.0748 13.5844 13.7452 13.2548L10.4071 9.91406C9.5001 10.5759 8.38213 10.9688 7.17188 10.9688C4.14229 10.9688 1.6875 8.51396 1.6875 5.48438C1.6875 2.45479 4.14229 0 7.17188 0C10.2015 0 12.6562 2.45479 12.6562 5.48438ZM7.17188 9.28125C7.67049 9.28125 8.16422 9.18304 8.62488 8.99223C9.08553 8.80142 9.5041 8.52174 9.85667 8.16917C10.2092 7.8166 10.4889 7.39803 10.6797 6.93738C10.8705 6.47672 10.9688 5.98299 10.9688 5.48438C10.9688 4.98576 10.8705 4.49203 10.6797 4.03137C10.4889 3.57072 10.2092 3.15215 9.85667 2.79958C9.5041 2.44701 9.08553 2.16733 8.62488 1.97652C8.16422 1.78571 7.67049 1.6875 7.17188 1.6875C6.67326 1.6875 6.17953 1.78571 5.71887 1.97652C5.25822 2.16733 4.83965 2.44701 4.48708 2.79958C4.13451 3.15215 3.85483 3.57072 3.66402 4.03137C3.47321 4.49203 3.375 4.98576 3.375 5.48438C3.375 5.98299 3.47321 6.47672 3.66402 6.93738C3.85483 7.39803 4.13451 7.8166 4.48708 8.16917C4.83965 8.52174 5.25822 8.80142 5.71887 8.99223C6.17953 9.18304 6.67326 9.28125 7.17188 9.28125Z" fill="#131313"/>
</g>
</svg>
